<mxfile host="app.diagrams.net" modified="2023-09-06T11:02:23.494Z" agent="Mozilla/5.0 (Windows NT 10.0; Win64; x64) AppleWebKit/537.36 (KHTML, like Gecko) Chrome/116.0.0.0 Safari/537.36" etag="NooyxsSSU-9ZUeqImpif" version="21.6.9" type="device">
  <diagram name="Pagina-1" id="41Hzh5X_kaqaGGv3rSMu">
    <mxGraphModel dx="3544" dy="1097" grid="1" gridSize="10" guides="1" tooltips="1" connect="1" arrows="0" fold="1" page="1" pageScale="1" pageWidth="850" pageHeight="1100" math="0" shadow="0" extFonts="Permanent Marker^https://fonts.googleapis.com/css?family=Permanent+Marker">
      <root>
        <mxCell id="0" />
        <mxCell id="1" parent="0" />
        <mxCell id="2" style="edgeStyle=orthogonalEdgeStyle;orthogonalLoop=1;jettySize=auto;html=1;exitX=0.75;exitY=1;exitDx=0;exitDy=0;entryX=0.5;entryY=0;entryDx=0;entryDy=0;strokeColor=default;endArrow=none;endFill=0;" parent="1" target="34" edge="1">
          <mxGeometry relative="1" as="geometry">
            <Array as="points">
              <mxPoint x="460" y="135" />
              <mxPoint x="765" y="135" />
            </Array>
            <mxPoint x="460" y="115" as="sourcePoint" />
            <mxPoint x="775" y="195" as="targetPoint" />
          </mxGeometry>
        </mxCell>
        <mxCell id="3" style="edgeStyle=orthogonalEdgeStyle;orthogonalLoop=1;jettySize=auto;html=1;exitX=1;exitY=1;exitDx=0;exitDy=0;entryX=0.5;entryY=0;entryDx=0;entryDy=0;endArrow=none;endFill=0;" parent="1" source="13" target="35" edge="1">
          <mxGeometry relative="1" as="geometry">
            <Array as="points">
              <mxPoint x="945" y="120" />
            </Array>
          </mxGeometry>
        </mxCell>
        <mxCell id="4" style="edgeStyle=orthogonalEdgeStyle;orthogonalLoop=1;jettySize=auto;html=1;exitX=0.5;exitY=0;exitDx=0;exitDy=0;endArrow=oval;endFill=1;" parent="1" source="13" target="41" edge="1">
          <mxGeometry relative="1" as="geometry" />
        </mxCell>
        <mxCell id="5" style="edgeStyle=orthogonalEdgeStyle;orthogonalLoop=1;jettySize=auto;html=1;exitX=0.75;exitY=0;exitDx=0;exitDy=0;entryX=0;entryY=1;entryDx=0;entryDy=0;endArrow=oval;endFill=0;" parent="1" source="13" target="42" edge="1">
          <mxGeometry relative="1" as="geometry" />
        </mxCell>
        <mxCell id="6" style="edgeStyle=orthogonalEdgeStyle;orthogonalLoop=1;jettySize=auto;html=1;exitX=0.25;exitY=0;exitDx=0;exitDy=0;endArrow=oval;endFill=0;" parent="1" source="13" edge="1">
          <mxGeometry relative="1" as="geometry">
            <mxPoint x="400" y="60" as="targetPoint" />
          </mxGeometry>
        </mxCell>
        <mxCell id="7" style="edgeStyle=orthogonalEdgeStyle;orthogonalLoop=1;jettySize=auto;html=1;exitX=0;exitY=0;exitDx=0;exitDy=0;entryX=0.917;entryY=0.667;entryDx=0;entryDy=0;entryPerimeter=0;endArrow=oval;endFill=0;" parent="1" source="13" target="44" edge="1">
          <mxGeometry relative="1" as="geometry" />
        </mxCell>
        <mxCell id="8" style="edgeStyle=orthogonalEdgeStyle;orthogonalLoop=1;jettySize=auto;html=1;exitX=1;exitY=0.5;exitDx=0;exitDy=0;entryX=0;entryY=0.5;entryDx=0;entryDy=0;entryPerimeter=0;endArrow=oval;endFill=0;" parent="1" source="13" target="63" edge="1">
          <mxGeometry relative="1" as="geometry" />
        </mxCell>
        <mxCell id="9" style="edgeStyle=orthogonalEdgeStyle;rounded=1;orthogonalLoop=1;jettySize=auto;html=1;exitX=0;exitY=0.75;exitDx=0;exitDy=0;entryX=0.5;entryY=0;entryDx=0;entryDy=0;endArrow=none;endFill=0;" parent="1" source="13" target="50" edge="1">
          <mxGeometry relative="1" as="geometry" />
        </mxCell>
        <mxCell id="10" style="edgeStyle=orthogonalEdgeStyle;rounded=0;orthogonalLoop=1;jettySize=auto;html=1;exitX=1;exitY=0;exitDx=0;exitDy=0;endArrow=oval;endFill=0;" parent="1" source="13" edge="1">
          <mxGeometry relative="1" as="geometry">
            <mxPoint x="490" y="80" as="targetPoint" />
          </mxGeometry>
        </mxCell>
        <mxCell id="11" style="edgeStyle=orthogonalEdgeStyle;rounded=0;orthogonalLoop=1;jettySize=auto;html=1;exitX=0;exitY=0.5;exitDx=0;exitDy=0;endArrow=oval;endFill=0;" parent="1" source="13" target="108" edge="1">
          <mxGeometry relative="1" as="geometry" />
        </mxCell>
        <mxCell id="12" style="edgeStyle=orthogonalEdgeStyle;rounded=1;orthogonalLoop=1;jettySize=auto;html=1;exitX=1;exitY=0.75;exitDx=0;exitDy=0;endArrow=none;endFill=0;" parent="1" source="13" target="110" edge="1">
          <mxGeometry relative="1" as="geometry">
            <mxPoint x="940" y="510" as="targetPoint" />
          </mxGeometry>
        </mxCell>
        <mxCell id="13" value="Utente" style="whiteSpace=wrap;html=1;align=center;rounded=0;" parent="1" vertex="1">
          <mxGeometry x="375" y="80" width="100" height="40" as="geometry" />
        </mxCell>
        <mxCell id="14" value="Fragile" style="whiteSpace=wrap;html=1;align=center;rounded=0;" parent="1" vertex="1">
          <mxGeometry x="490" y="160" width="100" height="40" as="geometry" />
        </mxCell>
        <mxCell id="15" style="edgeStyle=orthogonalEdgeStyle;rounded=0;orthogonalLoop=1;jettySize=auto;html=1;exitX=0.5;exitY=0;exitDx=0;exitDy=0;" parent="1" source="16" edge="1">
          <mxGeometry relative="1" as="geometry">
            <mxPoint x="425" y="130" as="targetPoint" />
          </mxGeometry>
        </mxCell>
        <mxCell id="16" value="Standard" style="whiteSpace=wrap;html=1;align=center;rounded=0;" parent="1" vertex="1">
          <mxGeometry x="375" y="160" width="100" height="40" as="geometry" />
        </mxCell>
        <mxCell id="18" style="edgeStyle=orthogonalEdgeStyle;rounded=1;orthogonalLoop=1;jettySize=auto;html=1;exitX=0;exitY=0.5;exitDx=0;exitDy=0;endArrow=none;endFill=0;" parent="1" source="19" target="75" edge="1">
          <mxGeometry relative="1" as="geometry" />
        </mxCell>
        <mxCell id="QCMUjjd5cfOw1SHgW-fw-127" style="edgeStyle=orthogonalEdgeStyle;rounded=1;orthogonalLoop=1;jettySize=auto;html=1;exitX=0.75;exitY=1;exitDx=0;exitDy=0;entryX=0.5;entryY=0;entryDx=0;entryDy=0;endArrow=none;endFill=0;" parent="1" source="19" target="QCMUjjd5cfOw1SHgW-fw-129" edge="1">
          <mxGeometry relative="1" as="geometry">
            <mxPoint x="335" y="650" as="targetPoint" />
          </mxGeometry>
        </mxCell>
        <mxCell id="auU55y5egvNY-qfzERoh-126" style="edgeStyle=orthogonalEdgeStyle;rounded=1;orthogonalLoop=1;jettySize=auto;html=1;exitX=0.5;exitY=1;exitDx=0;exitDy=0;entryX=1;entryY=0.5;entryDx=0;entryDy=0;endArrow=none;endFill=0;" edge="1" parent="1" source="19" target="62">
          <mxGeometry relative="1" as="geometry" />
        </mxCell>
        <mxCell id="19" value="Curatore" style="whiteSpace=wrap;html=1;align=center;rounded=0;" parent="1" vertex="1">
          <mxGeometry x="260" y="160" width="100" height="40" as="geometry" />
        </mxCell>
        <mxCell id="20" value="" style="shape=flexArrow;endArrow=classic;html=1;rounded=0;fillColor=#000000;" parent="1" edge="1">
          <mxGeometry width="50" height="50" relative="1" as="geometry">
            <mxPoint x="424" y="150" as="sourcePoint" />
            <mxPoint x="424" y="120" as="targetPoint" />
          </mxGeometry>
        </mxCell>
        <mxCell id="21" value="" style="endArrow=none;html=1;rounded=0;edgeStyle=orthogonalEdgeStyle;entryX=0.5;entryY=0;entryDx=0;entryDy=0;exitX=0.5;exitY=0;exitDx=0;exitDy=0;" parent="1" source="19" target="14" edge="1">
          <mxGeometry width="50" height="50" relative="1" as="geometry">
            <mxPoint x="310" y="150" as="sourcePoint" />
            <mxPoint x="540" y="150" as="targetPoint" />
            <Array as="points">
              <mxPoint x="310" y="150" />
              <mxPoint x="540" y="150" />
            </Array>
          </mxGeometry>
        </mxCell>
        <mxCell id="22" style="edgeStyle=orthogonalEdgeStyle;orthogonalLoop=1;jettySize=auto;html=1;exitX=0.25;exitY=0;exitDx=0;exitDy=0;entryX=0.5;entryY=1;entryDx=0;entryDy=0;endArrow=none;endFill=0;" parent="1" source="31" target="34" edge="1">
          <mxGeometry relative="1" as="geometry" />
        </mxCell>
        <mxCell id="23" style="edgeStyle=orthogonalEdgeStyle;orthogonalLoop=1;jettySize=auto;html=1;exitX=0.75;exitY=0;exitDx=0;exitDy=0;entryX=0.5;entryY=1;entryDx=0;entryDy=0;endArrow=none;endFill=0;" parent="1" source="31" target="35" edge="1">
          <mxGeometry relative="1" as="geometry" />
        </mxCell>
        <mxCell id="24" style="edgeStyle=orthogonalEdgeStyle;orthogonalLoop=1;jettySize=auto;html=1;exitX=1;exitY=0.5;exitDx=0;exitDy=0;endArrow=oval;endFill=0;entryX=0;entryY=0.467;entryDx=0;entryDy=0;entryPerimeter=0;" parent="1" source="31" edge="1">
          <mxGeometry relative="1" as="geometry">
            <mxPoint x="935" y="399.01" as="targetPoint" />
          </mxGeometry>
        </mxCell>
        <mxCell id="27" style="edgeStyle=orthogonalEdgeStyle;orthogonalLoop=1;jettySize=auto;html=1;exitX=1;exitY=0;exitDx=0;exitDy=0;entryX=0.025;entryY=-0.167;entryDx=0;entryDy=0;entryPerimeter=0;endArrow=oval;endFill=1;" parent="1" source="31" edge="1">
          <mxGeometry relative="1" as="geometry">
            <mxPoint x="936" y="379.99" as="targetPoint" />
          </mxGeometry>
        </mxCell>
        <mxCell id="29" style="edgeStyle=orthogonalEdgeStyle;rounded=0;orthogonalLoop=1;jettySize=auto;html=1;exitX=0;exitY=0;exitDx=0;exitDy=0;entryX=1.021;entryY=0.4;entryDx=0;entryDy=0;entryPerimeter=0;endArrow=oval;endFill=0;" parent="1" source="31" target="105" edge="1">
          <mxGeometry relative="1" as="geometry" />
        </mxCell>
        <mxCell id="30" style="edgeStyle=orthogonalEdgeStyle;rounded=0;orthogonalLoop=1;jettySize=auto;html=1;exitX=0;exitY=1;exitDx=0;exitDy=0;endArrow=oval;endFill=0;" parent="1" source="31" edge="1">
          <mxGeometry relative="1" as="geometry">
            <mxPoint x="775" y="420" as="targetPoint" />
          </mxGeometry>
        </mxCell>
        <mxCell id="Q8Neo4dbbyz0SUrR5pc5-180" style="edgeStyle=orthogonalEdgeStyle;rounded=0;orthogonalLoop=1;jettySize=auto;html=1;exitX=0;exitY=0;exitDx=0;exitDy=0;endArrow=oval;endFill=0;" parent="1" source="31" edge="1">
          <mxGeometry relative="1" as="geometry">
            <mxPoint x="805" y="360" as="targetPoint" />
          </mxGeometry>
        </mxCell>
        <mxCell id="31" value="Storia" style="whiteSpace=wrap;html=1;align=center;" parent="1" vertex="1">
          <mxGeometry x="805" y="380" width="100" height="40" as="geometry" />
        </mxCell>
        <mxCell id="32" style="edgeStyle=orthogonalEdgeStyle;orthogonalLoop=1;jettySize=auto;html=1;exitX=0;exitY=1;exitDx=0;exitDy=0;entryX=0.975;entryY=0.5;entryDx=0;entryDy=0;entryPerimeter=0;endArrow=oval;endFill=0;" parent="1" source="34" target="60" edge="1">
          <mxGeometry relative="1" as="geometry" />
        </mxCell>
        <mxCell id="33" style="edgeStyle=orthogonalEdgeStyle;orthogonalLoop=1;jettySize=auto;html=1;exitX=0;exitY=0;exitDx=0;exitDy=0;endArrow=oval;endFill=0;" parent="1" source="34" target="59" edge="1">
          <mxGeometry relative="1" as="geometry" />
        </mxCell>
        <mxCell id="34" value="Interazione" style="shape=rhombus;perimeter=rhombusPerimeter;whiteSpace=wrap;html=1;align=center;" parent="1" vertex="1">
          <mxGeometry x="705" y="200" width="120" height="60" as="geometry" />
        </mxCell>
        <mxCell id="35" value="Creazione" style="shape=rhombus;perimeter=rhombusPerimeter;whiteSpace=wrap;html=1;align=center;" parent="1" vertex="1">
          <mxGeometry x="885" y="200" width="120" height="60" as="geometry" />
        </mxCell>
        <mxCell id="36" value="titolo" style="text;html=1;align=center;verticalAlign=middle;resizable=0;points=[];autosize=1;strokeColor=none;fillColor=none;" parent="1" vertex="1">
          <mxGeometry x="780" y="338" width="50" height="30" as="geometry" />
        </mxCell>
        <mxCell id="37" value="totale &lt;br&gt;rating" style="text;html=1;align=center;verticalAlign=middle;resizable=0;points=[];autosize=1;strokeColor=none;fillColor=none;" parent="1" vertex="1">
          <mxGeometry x="935" y="390" width="50" height="40" as="geometry" />
        </mxCell>
        <mxCell id="38" value="timestamp inizio" style="text;html=1;align=center;verticalAlign=middle;resizable=0;points=[];autosize=1;strokeColor=none;fillColor=none;" parent="1" vertex="1">
          <mxGeometry x="740" y="545" width="110" height="30" as="geometry" />
        </mxCell>
        <mxCell id="39" value="timestamp fine" style="text;html=1;align=center;verticalAlign=middle;resizable=0;points=[];autosize=1;strokeColor=none;fillColor=none;" parent="1" vertex="1">
          <mxGeometry x="862.5" y="550" width="100" height="30" as="geometry" />
        </mxCell>
        <mxCell id="40" value="ID" style="text;html=1;align=center;verticalAlign=middle;resizable=0;points=[];autosize=1;strokeColor=none;fillColor=none;" parent="1" vertex="1">
          <mxGeometry x="935" y="368" width="40" height="30" as="geometry" />
        </mxCell>
        <mxCell id="41" value="email" style="text;html=1;strokeColor=none;fillColor=none;align=center;verticalAlign=middle;whiteSpace=wrap;rounded=0;" parent="1" vertex="1">
          <mxGeometry x="395" y="10" width="60" height="30" as="geometry" />
        </mxCell>
        <mxCell id="42" value="nome/cognome" style="text;html=1;strokeColor=none;fillColor=none;align=center;verticalAlign=middle;whiteSpace=wrap;rounded=0;" parent="1" vertex="1">
          <mxGeometry x="450" y="30" width="60" height="30" as="geometry" />
        </mxCell>
        <mxCell id="43" value="data nascita" style="text;html=1;strokeColor=none;fillColor=none;align=center;verticalAlign=middle;whiteSpace=wrap;rounded=0;" parent="1" vertex="1">
          <mxGeometry x="350" y="30" width="60" height="30" as="geometry" />
        </mxCell>
        <mxCell id="44" value="genere" style="text;html=1;align=center;verticalAlign=middle;resizable=0;points=[];autosize=1;strokeColor=none;fillColor=none;" parent="1" vertex="1">
          <mxGeometry x="285" y="60" width="60" height="30" as="geometry" />
        </mxCell>
        <mxCell id="45" style="edgeStyle=orthogonalEdgeStyle;orthogonalLoop=1;jettySize=auto;html=1;exitX=0.5;exitY=1;exitDx=0;exitDy=0;endArrow=oval;endFill=1;" parent="1" source="49" target="51" edge="1">
          <mxGeometry relative="1" as="geometry" />
        </mxCell>
        <mxCell id="46" style="edgeStyle=orthogonalEdgeStyle;orthogonalLoop=1;jettySize=auto;html=1;exitX=0.75;exitY=1;exitDx=0;exitDy=0;entryX=0.333;entryY=0.067;entryDx=0;entryDy=0;entryPerimeter=0;endArrow=oval;endFill=0;" parent="1" source="49" target="52" edge="1">
          <mxGeometry relative="1" as="geometry" />
        </mxCell>
        <mxCell id="47" style="edgeStyle=orthogonalEdgeStyle;rounded=0;orthogonalLoop=1;jettySize=auto;html=1;exitX=0.5;exitY=0;exitDx=0;exitDy=0;entryX=0.5;entryY=1;entryDx=0;entryDy=0;endArrow=none;endFill=0;" parent="1" source="49" target="50" edge="1">
          <mxGeometry relative="1" as="geometry" />
        </mxCell>
        <mxCell id="48" style="edgeStyle=orthogonalEdgeStyle;rounded=0;orthogonalLoop=1;jettySize=auto;html=1;exitX=0.25;exitY=1;exitDx=0;exitDy=0;endArrow=oval;endFill=0;" parent="1" source="49" target="123" edge="1">
          <mxGeometry relative="1" as="geometry" />
        </mxCell>
        <mxCell id="49" value="Gruppo" style="whiteSpace=wrap;html=1;align=center;" parent="1" vertex="1">
          <mxGeometry y="360" width="100" height="40" as="geometry" />
        </mxCell>
        <mxCell id="50" value="Appartenenza" style="shape=rhombus;perimeter=rhombusPerimeter;whiteSpace=wrap;html=1;align=center;" parent="1" vertex="1">
          <mxGeometry x="-10" y="160" width="120" height="60" as="geometry" />
        </mxCell>
        <mxCell id="51" value="nome" style="text;html=1;align=center;verticalAlign=middle;resizable=0;points=[];autosize=1;strokeColor=none;fillColor=none;" parent="1" vertex="1">
          <mxGeometry x="25" y="440" width="50" height="30" as="geometry" />
        </mxCell>
        <mxCell id="52" value="supervisore" style="text;html=1;align=center;verticalAlign=middle;resizable=0;points=[];autosize=1;strokeColor=none;fillColor=none;" parent="1" vertex="1">
          <mxGeometry x="45" y="418" width="90" height="30" as="geometry" />
        </mxCell>
        <mxCell id="53" style="edgeStyle=orthogonalEdgeStyle;orthogonalLoop=1;jettySize=auto;html=1;exitX=0;exitY=0.5;exitDx=0;exitDy=0;entryX=1;entryY=0.5;entryDx=0;entryDy=0;endArrow=none;endFill=0;" parent="1" source="56" target="58" edge="1">
          <mxGeometry relative="1" as="geometry" />
        </mxCell>
        <mxCell id="54" style="edgeStyle=orthogonalEdgeStyle;orthogonalLoop=1;jettySize=auto;html=1;exitX=1;exitY=0.5;exitDx=0;exitDy=0;endArrow=oval;endFill=0;" parent="1" source="56" target="73" edge="1">
          <mxGeometry relative="1" as="geometry" />
        </mxCell>
        <mxCell id="55" style="edgeStyle=orthogonalEdgeStyle;rounded=0;orthogonalLoop=1;jettySize=auto;html=1;exitX=1;exitY=1;exitDx=0;exitDy=0;endArrow=oval;endFill=0;" parent="1" source="56" edge="1">
          <mxGeometry relative="1" as="geometry">
            <mxPoint x="820" y="937" as="targetPoint" />
          </mxGeometry>
        </mxCell>
        <mxCell id="Q8Neo4dbbyz0SUrR5pc5-126" style="edgeStyle=orthogonalEdgeStyle;rounded=0;orthogonalLoop=1;jettySize=auto;html=1;exitX=1;exitY=0;exitDx=0;exitDy=0;endArrow=oval;endFill=0;" parent="1" source="56" edge="1">
          <mxGeometry relative="1" as="geometry">
            <mxPoint x="785" y="877" as="targetPoint" />
          </mxGeometry>
        </mxCell>
        <mxCell id="Q8Neo4dbbyz0SUrR5pc5-127" style="edgeStyle=orthogonalEdgeStyle;rounded=0;orthogonalLoop=1;jettySize=auto;html=1;exitX=1;exitY=0;exitDx=0;exitDy=0;endArrow=oval;endFill=1;" parent="1" source="56" edge="1">
          <mxGeometry relative="1" as="geometry">
            <mxPoint x="820" y="897" as="targetPoint" />
          </mxGeometry>
        </mxCell>
        <mxCell id="Q8Neo4dbbyz0SUrR5pc5-137" style="edgeStyle=orthogonalEdgeStyle;rounded=0;orthogonalLoop=1;jettySize=auto;html=1;exitX=0;exitY=1;exitDx=0;exitDy=0;entryX=0.96;entryY=0.667;entryDx=0;entryDy=0;entryPerimeter=0;endArrow=oval;endFill=0;" parent="1" source="56" target="Q8Neo4dbbyz0SUrR5pc5-136" edge="1">
          <mxGeometry relative="1" as="geometry" />
        </mxCell>
        <mxCell id="auU55y5egvNY-qfzERoh-125" style="edgeStyle=orthogonalEdgeStyle;rounded=0;orthogonalLoop=1;jettySize=auto;html=1;exitX=0;exitY=0;exitDx=0;exitDy=0;entryX=0.658;entryY=1.067;entryDx=0;entryDy=0;entryPerimeter=0;endArrow=oval;endFill=0;" edge="1" parent="1" source="56" target="auU55y5egvNY-qfzERoh-124">
          <mxGeometry relative="1" as="geometry" />
        </mxCell>
        <mxCell id="56" value="Opera" style="whiteSpace=wrap;html=1;align=center;" parent="1" vertex="1">
          <mxGeometry x="685" y="897" width="100" height="40" as="geometry" />
        </mxCell>
        <mxCell id="57" style="edgeStyle=orthogonalEdgeStyle;orthogonalLoop=1;jettySize=auto;html=1;exitX=0;exitY=0.5;exitDx=0;exitDy=0;entryX=1;entryY=0.5;entryDx=0;entryDy=0;endArrow=none;endFill=0;" parent="1" source="58" edge="1">
          <mxGeometry relative="1" as="geometry">
            <mxPoint x="405" y="917" as="targetPoint" />
          </mxGeometry>
        </mxCell>
        <mxCell id="58" value="Realizzazione" style="shape=rhombus;perimeter=rhombusPerimeter;whiteSpace=wrap;html=1;align=center;" parent="1" vertex="1">
          <mxGeometry x="485" y="887" width="120" height="60" as="geometry" />
        </mxCell>
        <mxCell id="59" value="rating" style="text;html=1;align=center;verticalAlign=middle;resizable=0;points=[];autosize=1;strokeColor=none;fillColor=none;" parent="1" vertex="1">
          <mxGeometry x="635" y="200" width="50" height="30" as="geometry" />
        </mxCell>
        <mxCell id="60" value="commento" style="text;html=1;align=center;verticalAlign=middle;resizable=0;points=[];autosize=1;strokeColor=none;fillColor=none;" parent="1" vertex="1">
          <mxGeometry x="605" y="230" width="80" height="30" as="geometry" />
        </mxCell>
        <mxCell id="Q8Neo4dbbyz0SUrR5pc5-171" style="edgeStyle=orthogonalEdgeStyle;orthogonalLoop=1;jettySize=auto;html=1;exitX=0;exitY=0.5;exitDx=0;exitDy=0;entryX=0.5;entryY=1;entryDx=0;entryDy=0;rounded=1;endArrow=none;endFill=0;" parent="1" source="62" target="Q8Neo4dbbyz0SUrR5pc5-130" edge="1">
          <mxGeometry relative="1" as="geometry">
            <Array as="points">
              <mxPoint x="150" y="722" />
              <mxPoint x="150" y="1037" />
              <mxPoint x="850" y="1037" />
            </Array>
          </mxGeometry>
        </mxCell>
        <mxCell id="62" value="Aggiunta opera" style="shape=rhombus;perimeter=rhombusPerimeter;whiteSpace=wrap;html=1;align=center;" parent="1" vertex="1">
          <mxGeometry x="150" y="545" width="120" height="60" as="geometry" />
        </mxCell>
        <mxCell id="63" value="n. storie create" style="text;html=1;align=center;verticalAlign=middle;resizable=0;points=[];autosize=1;strokeColor=none;fillColor=none;" parent="1" vertex="1">
          <mxGeometry x="490" y="85" width="100" height="30" as="geometry" />
        </mxCell>
        <mxCell id="64" value="data nascita" style="text;html=1;align=center;verticalAlign=middle;resizable=0;points=[];autosize=1;strokeColor=none;fillColor=none;" parent="1" vertex="1">
          <mxGeometry x="260" y="957" width="90" height="30" as="geometry" />
        </mxCell>
        <mxCell id="65" style="edgeStyle=orthogonalEdgeStyle;orthogonalLoop=1;jettySize=auto;html=1;exitX=0.5;exitY=1;exitDx=0;exitDy=0;entryX=0.5;entryY=-0.133;entryDx=0;entryDy=0;entryPerimeter=0;endArrow=oval;endFill=1;" parent="1" source="69" target="70" edge="1">
          <mxGeometry relative="1" as="geometry" />
        </mxCell>
        <mxCell id="66" style="edgeStyle=orthogonalEdgeStyle;orthogonalLoop=1;jettySize=auto;html=1;exitX=0;exitY=1;exitDx=0;exitDy=0;endArrow=oval;endFill=0;" parent="1" source="69" edge="1">
          <mxGeometry relative="1" as="geometry">
            <mxPoint x="305" y="957" as="targetPoint" />
            <Array as="points">
              <mxPoint x="305" y="947" />
              <mxPoint x="305" y="947" />
            </Array>
          </mxGeometry>
        </mxCell>
        <mxCell id="67" style="edgeStyle=orthogonalEdgeStyle;orthogonalLoop=1;jettySize=auto;html=1;exitX=1;exitY=1;exitDx=0;exitDy=0;endArrow=oval;endFill=0;" parent="1" source="69" target="71" edge="1">
          <mxGeometry relative="1" as="geometry" />
        </mxCell>
        <mxCell id="68" style="edgeStyle=orthogonalEdgeStyle;orthogonalLoop=1;jettySize=auto;html=1;exitX=0;exitY=0.5;exitDx=0;exitDy=0;endArrow=oval;endFill=0;" parent="1" source="69" target="72" edge="1">
          <mxGeometry relative="1" as="geometry" />
        </mxCell>
        <mxCell id="69" value="Autore" style="whiteSpace=wrap;html=1;align=center;" parent="1" vertex="1">
          <mxGeometry x="305" y="897" width="100" height="40" as="geometry" />
        </mxCell>
        <mxCell id="70" value="nome/cognome" style="text;html=1;align=center;verticalAlign=middle;resizable=0;points=[];autosize=1;strokeColor=none;fillColor=none;" parent="1" vertex="1">
          <mxGeometry x="300" y="987" width="110" height="30" as="geometry" />
        </mxCell>
        <mxCell id="71" value="data morte" style="text;html=1;align=center;verticalAlign=middle;resizable=0;points=[];autosize=1;strokeColor=none;fillColor=none;" parent="1" vertex="1">
          <mxGeometry x="365" y="957" width="80" height="30" as="geometry" />
        </mxCell>
        <mxCell id="72" value="movimento artistico" style="text;html=1;align=center;verticalAlign=middle;resizable=0;points=[];autosize=1;strokeColor=none;fillColor=none;" parent="1" vertex="1">
          <mxGeometry x="145" y="902" width="130" height="30" as="geometry" />
        </mxCell>
        <mxCell id="73" value="materiale" style="text;html=1;align=center;verticalAlign=middle;resizable=0;points=[];autosize=1;strokeColor=none;fillColor=none;" parent="1" vertex="1">
          <mxGeometry x="825" y="902" width="70" height="30" as="geometry" />
        </mxCell>
        <mxCell id="74" style="edgeStyle=orthogonalEdgeStyle;rounded=1;orthogonalLoop=1;jettySize=auto;html=1;exitX=0.5;exitY=1;exitDx=0;exitDy=0;entryX=1;entryY=0.5;entryDx=0;entryDy=0;endArrow=none;endFill=0;" parent="1" source="75" target="49" edge="1">
          <mxGeometry relative="1" as="geometry" />
        </mxCell>
        <mxCell id="75" value="Organizzazione" style="shape=rhombus;perimeter=rhombusPerimeter;whiteSpace=wrap;html=1;align=center;" parent="1" vertex="1">
          <mxGeometry x="160" y="280" width="120" height="60" as="geometry" />
        </mxCell>
        <mxCell id="76" value="(1,1)" style="text;html=1;align=center;verticalAlign=middle;resizable=0;points=[];autosize=1;strokeColor=none;fillColor=none;" parent="1" vertex="1">
          <mxGeometry x="945" y="270" width="50" height="30" as="geometry" />
        </mxCell>
        <mxCell id="77" value="(1,1)" style="text;html=1;align=center;verticalAlign=middle;resizable=0;points=[];autosize=1;strokeColor=none;fillColor=none;" parent="1" vertex="1">
          <mxGeometry x="765" y="270" width="50" height="30" as="geometry" />
        </mxCell>
        <mxCell id="78" value="(0,N)" style="text;html=1;align=center;verticalAlign=middle;resizable=0;points=[];autosize=1;strokeColor=none;fillColor=none;" parent="1" vertex="1">
          <mxGeometry x="895" y="150" width="50" height="30" as="geometry" />
        </mxCell>
        <mxCell id="79" value="(0,N)" style="text;html=1;align=center;verticalAlign=middle;resizable=0;points=[];autosize=1;strokeColor=none;fillColor=none;" parent="1" vertex="1">
          <mxGeometry x="715" y="160" width="50" height="30" as="geometry" />
        </mxCell>
        <mxCell id="80" value="(1,N)" style="text;html=1;align=center;verticalAlign=middle;resizable=0;points=[];autosize=1;strokeColor=none;fillColor=none;" parent="1" vertex="1">
          <mxGeometry x="425" y="887" width="50" height="30" as="geometry" />
        </mxCell>
        <mxCell id="81" value="(1,N)" style="text;html=1;align=center;verticalAlign=middle;resizable=0;points=[];autosize=1;strokeColor=none;fillColor=none;" parent="1" vertex="1">
          <mxGeometry x="605" y="887" width="50" height="30" as="geometry" />
        </mxCell>
        <mxCell id="82" value="(1,1)" style="text;html=1;align=center;verticalAlign=middle;resizable=0;points=[];autosize=1;strokeColor=none;fillColor=none;" parent="1" vertex="1">
          <mxGeometry x="105" y="842" width="50" height="30" as="geometry" />
        </mxCell>
        <mxCell id="83" value="(0,N)" style="text;html=1;align=center;verticalAlign=middle;resizable=0;points=[];autosize=1;strokeColor=none;fillColor=none;" parent="1" vertex="1">
          <mxGeometry x="260" y="388" width="50" height="30" as="geometry" />
        </mxCell>
        <mxCell id="84" value="(1,1)" style="text;html=1;align=center;verticalAlign=middle;resizable=0;points=[];autosize=1;strokeColor=none;fillColor=none;" parent="1" vertex="1">
          <mxGeometry x="135" y="350" width="50" height="30" as="geometry" />
        </mxCell>
        <mxCell id="85" value="(1,N)" style="text;html=1;align=center;verticalAlign=middle;resizable=0;points=[];autosize=1;strokeColor=none;fillColor=none;" parent="1" vertex="1">
          <mxGeometry x="220" y="235" width="50" height="30" as="geometry" />
        </mxCell>
        <mxCell id="86" value="(0,N)" style="text;html=1;align=center;verticalAlign=middle;resizable=0;points=[];autosize=1;strokeColor=none;fillColor=none;" parent="1" vertex="1">
          <mxGeometry x="135" y="108" width="50" height="30" as="geometry" />
        </mxCell>
        <mxCell id="87" value="(1,N)" style="text;html=1;align=center;verticalAlign=middle;resizable=0;points=[];autosize=1;strokeColor=none;fillColor=none;" parent="1" vertex="1">
          <mxGeometry x="55" y="268" width="50" height="30" as="geometry" />
        </mxCell>
        <mxCell id="88" style="edgeStyle=orthogonalEdgeStyle;rounded=0;orthogonalLoop=1;jettySize=auto;html=1;exitX=0;exitY=0;exitDx=0;exitDy=0;endArrow=oval;endFill=0;" parent="1" target="92" edge="1">
          <mxGeometry relative="1" as="geometry">
            <mxPoint x="830" y="717" as="sourcePoint" />
          </mxGeometry>
        </mxCell>
        <mxCell id="89" style="edgeStyle=orthogonalEdgeStyle;rounded=0;orthogonalLoop=1;jettySize=auto;html=1;exitX=0;exitY=1;exitDx=0;exitDy=0;endArrow=oval;endFill=0;" parent="1" target="93" edge="1">
          <mxGeometry relative="1" as="geometry">
            <mxPoint x="830" y="747" as="sourcePoint" />
          </mxGeometry>
        </mxCell>
        <mxCell id="90" style="edgeStyle=orthogonalEdgeStyle;rounded=0;orthogonalLoop=1;jettySize=auto;html=1;exitX=1;exitY=0;exitDx=0;exitDy=0;endArrow=oval;endFill=0;" parent="1" edge="1">
          <mxGeometry relative="1" as="geometry">
            <mxPoint x="890" y="717" as="sourcePoint" />
            <mxPoint x="940" y="717" as="targetPoint" />
          </mxGeometry>
        </mxCell>
        <mxCell id="91" value="(1,1)" style="text;html=1;align=center;verticalAlign=middle;resizable=0;points=[];autosize=1;strokeColor=none;fillColor=none;" parent="1" vertex="1">
          <mxGeometry x="850" y="807" width="50" height="30" as="geometry" />
        </mxCell>
        <mxCell id="92" value="domande" style="text;html=1;align=center;verticalAlign=middle;resizable=0;points=[];autosize=1;strokeColor=none;fillColor=none;" parent="1" vertex="1">
          <mxGeometry x="705" y="702" width="70" height="30" as="geometry" />
        </mxCell>
        <mxCell id="93" value="emoji" style="text;html=1;align=center;verticalAlign=middle;resizable=0;points=[];autosize=1;strokeColor=none;fillColor=none;" parent="1" vertex="1">
          <mxGeometry x="725" y="732" width="50" height="30" as="geometry" />
        </mxCell>
        <mxCell id="94" value="hashtag" style="text;html=1;align=center;verticalAlign=middle;resizable=0;points=[];autosize=1;strokeColor=none;fillColor=none;" parent="1" vertex="1">
          <mxGeometry x="935" y="702" width="70" height="30" as="geometry" />
        </mxCell>
        <mxCell id="95" value="commento opera" style="text;html=1;align=center;verticalAlign=middle;resizable=0;points=[];autosize=1;strokeColor=none;fillColor=none;" parent="1" vertex="1">
          <mxGeometry x="665" y="717" width="110" height="30" as="geometry" />
        </mxCell>
        <mxCell id="96" style="edgeStyle=orthogonalEdgeStyle;rounded=0;orthogonalLoop=1;jettySize=auto;html=1;exitX=0.5;exitY=0;exitDx=0;exitDy=0;endArrow=none;endFill=0;entryX=0.5;entryY=1;entryDx=0;entryDy=0;" parent="1" source="98" target="103" edge="1">
          <mxGeometry relative="1" as="geometry">
            <mxPoint x="860" y="672" as="targetPoint" />
          </mxGeometry>
        </mxCell>
        <mxCell id="97" style="edgeStyle=orthogonalEdgeStyle;rounded=0;orthogonalLoop=1;jettySize=auto;html=1;exitX=0;exitY=0.5;exitDx=0;exitDy=0;endArrow=oval;endFill=0;" parent="1" source="98" target="95" edge="1">
          <mxGeometry relative="1" as="geometry" />
        </mxCell>
        <mxCell id="Q8Neo4dbbyz0SUrR5pc5-172" style="edgeStyle=orthogonalEdgeStyle;rounded=1;orthogonalLoop=1;jettySize=auto;html=1;exitX=1;exitY=0.75;exitDx=0;exitDy=0;entryX=0.5;entryY=1;entryDx=0;entryDy=0;endArrow=none;endFill=0;" parent="1" source="98" target="110" edge="1">
          <mxGeometry relative="1" as="geometry" />
        </mxCell>
        <mxCell id="QCMUjjd5cfOw1SHgW-fw-124" style="edgeStyle=orthogonalEdgeStyle;rounded=0;orthogonalLoop=1;jettySize=auto;html=1;exitX=0.25;exitY=0;exitDx=0;exitDy=0;endArrow=oval;endFill=1;" parent="1" source="98" edge="1">
          <mxGeometry relative="1" as="geometry">
            <mxPoint x="835" y="690" as="targetPoint" />
          </mxGeometry>
        </mxCell>
        <mxCell id="98" value="Opera Annotata" style="whiteSpace=wrap;html=1;align=center;" parent="1" vertex="1">
          <mxGeometry x="810" y="712" width="100" height="40" as="geometry" />
        </mxCell>
        <mxCell id="100" style="edgeStyle=orthogonalEdgeStyle;rounded=0;orthogonalLoop=1;jettySize=auto;html=1;exitX=0.5;exitY=1;exitDx=0;exitDy=0;entryX=0.5;entryY=0;entryDx=0;entryDy=0;endArrow=none;endFill=0;" parent="1" source="101" target="56" edge="1">
          <mxGeometry relative="1" as="geometry" />
        </mxCell>
        <mxCell id="Q8Neo4dbbyz0SUrR5pc5-146" style="edgeStyle=orthogonalEdgeStyle;rounded=1;orthogonalLoop=1;jettySize=auto;html=1;exitX=1;exitY=0.5;exitDx=0;exitDy=0;endArrow=none;endFill=0;" parent="1" source="101" edge="1">
          <mxGeometry relative="1" as="geometry">
            <mxPoint x="860" y="747" as="targetPoint" />
          </mxGeometry>
        </mxCell>
        <mxCell id="101" value="Annotazione" style="shape=rhombus;perimeter=rhombusPerimeter;whiteSpace=wrap;html=1;align=center;" parent="1" vertex="1">
          <mxGeometry x="675" y="812" width="120" height="60" as="geometry" />
        </mxCell>
        <mxCell id="Q8Neo4dbbyz0SUrR5pc5-185" style="edgeStyle=orthogonalEdgeStyle;rounded=1;orthogonalLoop=1;jettySize=auto;html=1;exitX=1;exitY=0.5;exitDx=0;exitDy=0;entryX=0.75;entryY=1;entryDx=0;entryDy=0;endArrow=none;endFill=0;" parent="1" source="103" target="31" edge="1">
          <mxGeometry relative="1" as="geometry">
            <Array as="points">
              <mxPoint x="980" y="640" />
              <mxPoint x="980" y="450" />
              <mxPoint x="880" y="450" />
            </Array>
          </mxGeometry>
        </mxCell>
        <mxCell id="103" value="Composizione" style="shape=rhombus;perimeter=rhombusPerimeter;whiteSpace=wrap;html=1;align=center;" parent="1" vertex="1">
          <mxGeometry x="800" y="610" width="120" height="60" as="geometry" />
        </mxCell>
        <mxCell id="104" value="(1,1)" style="text;html=1;align=center;verticalAlign=middle;resizable=0;points=[];autosize=1;strokeColor=none;fillColor=none;" parent="1" vertex="1">
          <mxGeometry x="855" y="672" width="50" height="30" as="geometry" />
        </mxCell>
        <mxCell id="105" value="commento_personale" style="text;html=1;align=center;verticalAlign=middle;resizable=0;points=[];autosize=1;strokeColor=none;fillColor=none;" parent="1" vertex="1">
          <mxGeometry x="635" y="368" width="140" height="30" as="geometry" />
        </mxCell>
        <mxCell id="106" value="is_public" style="text;html=1;align=center;verticalAlign=middle;resizable=0;points=[];autosize=1;strokeColor=none;fillColor=none;" parent="1" vertex="1">
          <mxGeometry x="705" y="410" width="70" height="30" as="geometry" />
        </mxCell>
        <mxCell id="107" value="is_suspended" style="text;html=1;align=center;verticalAlign=middle;resizable=0;points=[];autosize=1;strokeColor=none;fillColor=none;" parent="1" vertex="1">
          <mxGeometry x="485" y="68" width="100" height="30" as="geometry" />
        </mxCell>
        <mxCell id="108" value="is_online" style="text;html=1;align=center;verticalAlign=middle;resizable=0;points=[];autosize=1;strokeColor=none;fillColor=none;" parent="1" vertex="1">
          <mxGeometry x="270" y="85" width="70" height="30" as="geometry" />
        </mxCell>
        <mxCell id="110" value="Riflessione" style="shape=rhombus;perimeter=rhombusPerimeter;whiteSpace=wrap;html=1;align=center;" parent="1" vertex="1">
          <mxGeometry x="1005" y="485" width="120" height="60" as="geometry" />
        </mxCell>
        <mxCell id="113" value="(0,3)" style="text;html=1;align=center;verticalAlign=middle;resizable=0;points=[];autosize=1;strokeColor=none;fillColor=none;" parent="1" vertex="1">
          <mxGeometry x="765" y="687" width="50" height="30" as="geometry" />
        </mxCell>
        <mxCell id="114" value="(0,N)" style="text;html=1;align=center;verticalAlign=middle;resizable=0;points=[];autosize=1;strokeColor=none;fillColor=none;" parent="1" vertex="1">
          <mxGeometry x="725" y="867" width="50" height="30" as="geometry" />
        </mxCell>
        <mxCell id="121" value="(1,1)" style="text;html=1;align=center;verticalAlign=middle;resizable=0;points=[];autosize=1;strokeColor=none;fillColor=none;" parent="1" vertex="1">
          <mxGeometry x="1065" y="640" width="50" height="30" as="geometry" />
        </mxCell>
        <mxCell id="122" value="(0,N)" style="text;html=1;align=center;verticalAlign=middle;resizable=0;points=[];autosize=1;strokeColor=none;fillColor=none;" parent="1" vertex="1">
          <mxGeometry x="1065" y="355" width="50" height="30" as="geometry" />
        </mxCell>
        <mxCell id="123" value="n. utenti" style="text;html=1;align=center;verticalAlign=middle;resizable=0;points=[];autosize=1;strokeColor=none;fillColor=none;" parent="1" vertex="1">
          <mxGeometry x="-10" y="420" width="70" height="30" as="geometry" />
        </mxCell>
        <mxCell id="124" value="descrizione" style="text;html=1;align=center;verticalAlign=middle;resizable=0;points=[];autosize=1;strokeColor=none;fillColor=none;" parent="1" vertex="1">
          <mxGeometry x="815" y="927" width="80" height="30" as="geometry" />
        </mxCell>
        <mxCell id="Q8Neo4dbbyz0SUrR5pc5-128" value="titolo" style="text;html=1;align=center;verticalAlign=middle;resizable=0;points=[];autosize=1;strokeColor=none;fillColor=none;" parent="1" vertex="1">
          <mxGeometry x="765" y="855" width="50" height="30" as="geometry" />
        </mxCell>
        <mxCell id="Q8Neo4dbbyz0SUrR5pc5-129" value="codice" style="text;html=1;align=center;verticalAlign=middle;resizable=0;points=[];autosize=1;strokeColor=none;fillColor=none;" parent="1" vertex="1">
          <mxGeometry x="810" y="887" width="60" height="30" as="geometry" />
        </mxCell>
        <mxCell id="Q8Neo4dbbyz0SUrR5pc5-130" value="Assente" style="whiteSpace=wrap;html=1;align=center;rounded=0;" parent="1" vertex="1">
          <mxGeometry x="800" y="977" width="100" height="40" as="geometry" />
        </mxCell>
        <mxCell id="Q8Neo4dbbyz0SUrR5pc5-133" value="Presente" style="whiteSpace=wrap;html=1;align=center;rounded=0;" parent="1" vertex="1">
          <mxGeometry x="570" y="977" width="100" height="40" as="geometry" />
        </mxCell>
        <mxCell id="Q8Neo4dbbyz0SUrR5pc5-134" value="" style="shape=flexArrow;endArrow=classic;html=1;rounded=0;fillColor=#000000;" parent="1" edge="1">
          <mxGeometry width="50" height="50" relative="1" as="geometry">
            <mxPoint x="734" y="967" as="sourcePoint" />
            <mxPoint x="734" y="937" as="targetPoint" />
          </mxGeometry>
        </mxCell>
        <mxCell id="Q8Neo4dbbyz0SUrR5pc5-135" value="" style="endArrow=none;html=1;rounded=0;edgeStyle=orthogonalEdgeStyle;entryX=0.5;entryY=0;entryDx=0;entryDy=0;exitX=0.5;exitY=0;exitDx=0;exitDy=0;" parent="1" source="Q8Neo4dbbyz0SUrR5pc5-133" target="Q8Neo4dbbyz0SUrR5pc5-130" edge="1">
          <mxGeometry width="50" height="50" relative="1" as="geometry">
            <mxPoint x="620" y="967" as="sourcePoint" />
            <mxPoint x="850" y="967" as="targetPoint" />
            <Array as="points">
              <mxPoint x="620" y="967" />
              <mxPoint x="850" y="967" />
            </Array>
          </mxGeometry>
        </mxCell>
        <mxCell id="Q8Neo4dbbyz0SUrR5pc5-136" value="anno" style="text;html=1;align=center;verticalAlign=middle;resizable=0;points=[];autosize=1;strokeColor=none;fillColor=none;" parent="1" vertex="1">
          <mxGeometry x="615" y="917" width="50" height="30" as="geometry" />
        </mxCell>
        <mxCell id="Q8Neo4dbbyz0SUrR5pc5-138" value="(2,3)" style="text;html=1;align=center;verticalAlign=middle;resizable=0;points=[];autosize=1;strokeColor=none;fillColor=none;" parent="1" vertex="1">
          <mxGeometry x="935" y="580" width="50" height="30" as="geometry" />
        </mxCell>
        <mxCell id="QCMUjjd5cfOw1SHgW-fw-126" style="edgeStyle=orthogonalEdgeStyle;rounded=0;orthogonalLoop=1;jettySize=auto;html=1;exitX=0.5;exitY=0;exitDx=0;exitDy=0;entryX=0.5;entryY=1;entryDx=0;entryDy=0;endArrow=none;endFill=0;" parent="1" source="Q8Neo4dbbyz0SUrR5pc5-139" target="Q8Neo4dbbyz0SUrR5pc5-147" edge="1">
          <mxGeometry relative="1" as="geometry" />
        </mxCell>
        <mxCell id="Q8Neo4dbbyz0SUrR5pc5-139" value="Storia consigliata" style="whiteSpace=wrap;html=1;align=center;" parent="1" vertex="1">
          <mxGeometry x="545" y="485" width="100" height="40" as="geometry" />
        </mxCell>
        <mxCell id="Q8Neo4dbbyz0SUrR5pc5-149" style="edgeStyle=orthogonalEdgeStyle;rounded=0;orthogonalLoop=1;jettySize=auto;html=1;exitX=1;exitY=0.5;exitDx=0;exitDy=0;entryX=0;entryY=0.5;entryDx=0;entryDy=0;endArrow=none;endFill=0;" parent="1" source="Q8Neo4dbbyz0SUrR5pc5-147" target="31" edge="1">
          <mxGeometry relative="1" as="geometry">
            <mxPoint x="800" y="400" as="targetPoint" />
          </mxGeometry>
        </mxCell>
        <mxCell id="Q8Neo4dbbyz0SUrR5pc5-147" value="Consiglio" style="shape=rhombus;perimeter=rhombusPerimeter;whiteSpace=wrap;html=1;align=center;" parent="1" vertex="1">
          <mxGeometry x="535" y="370" width="120" height="60" as="geometry" />
        </mxCell>
        <mxCell id="Q8Neo4dbbyz0SUrR5pc5-169" value="(1,N)" style="text;html=1;align=center;verticalAlign=middle;resizable=0;points=[];autosize=1;strokeColor=none;fillColor=none;" parent="1" vertex="1">
          <mxGeometry x="650" y="400" width="50" height="30" as="geometry" />
        </mxCell>
        <mxCell id="Q8Neo4dbbyz0SUrR5pc5-170" value="(0,N)" style="text;html=1;align=center;verticalAlign=middle;resizable=0;points=[];autosize=1;strokeColor=none;fillColor=none;" parent="1" vertex="1">
          <mxGeometry x="590" y="440" width="50" height="30" as="geometry" />
        </mxCell>
        <mxCell id="Q8Neo4dbbyz0SUrR5pc5-174" style="edgeStyle=orthogonalEdgeStyle;rounded=0;orthogonalLoop=1;jettySize=auto;html=1;exitX=0.5;exitY=0;exitDx=0;exitDy=0;endArrow=none;endFill=0;" parent="1" source="Q8Neo4dbbyz0SUrR5pc5-175" edge="1">
          <mxGeometry relative="1" as="geometry">
            <mxPoint x="857.5" y="478" as="targetPoint" />
            <Array as="points">
              <mxPoint x="912.5" y="478" />
            </Array>
          </mxGeometry>
        </mxCell>
        <mxCell id="Q8Neo4dbbyz0SUrR5pc5-183" style="edgeStyle=orthogonalEdgeStyle;rounded=0;orthogonalLoop=1;jettySize=auto;html=1;exitX=0.5;exitY=1;exitDx=0;exitDy=0;endArrow=oval;endFill=0;" parent="1" source="Q8Neo4dbbyz0SUrR5pc5-175" edge="1">
          <mxGeometry relative="1" as="geometry">
            <mxPoint x="913" y="550" as="targetPoint" />
          </mxGeometry>
        </mxCell>
        <mxCell id="Q8Neo4dbbyz0SUrR5pc5-175" value="Conclusa" style="whiteSpace=wrap;html=1;align=center;rounded=0;" parent="1" vertex="1">
          <mxGeometry x="862.5" y="491" width="100" height="40" as="geometry" />
        </mxCell>
        <mxCell id="Q8Neo4dbbyz0SUrR5pc5-176" style="edgeStyle=orthogonalEdgeStyle;rounded=0;orthogonalLoop=1;jettySize=auto;html=1;exitX=0.5;exitY=0;exitDx=0;exitDy=0;startArrow=none;startFill=0;endArrow=none;endFill=0;" parent="1" source="Q8Neo4dbbyz0SUrR5pc5-177" edge="1">
          <mxGeometry relative="1" as="geometry">
            <mxPoint x="857.5" y="478" as="targetPoint" />
            <Array as="points">
              <mxPoint x="797.5" y="478" />
            </Array>
          </mxGeometry>
        </mxCell>
        <mxCell id="Q8Neo4dbbyz0SUrR5pc5-184" style="edgeStyle=orthogonalEdgeStyle;rounded=0;orthogonalLoop=1;jettySize=auto;html=1;exitX=0.5;exitY=1;exitDx=0;exitDy=0;entryX=0.527;entryY=0.033;entryDx=0;entryDy=0;entryPerimeter=0;endArrow=oval;endFill=0;" parent="1" source="Q8Neo4dbbyz0SUrR5pc5-177" target="38" edge="1">
          <mxGeometry relative="1" as="geometry" />
        </mxCell>
        <mxCell id="Q8Neo4dbbyz0SUrR5pc5-177" value="Iniziata" style="whiteSpace=wrap;html=1;align=center;rounded=0;" parent="1" vertex="1">
          <mxGeometry x="747.5" y="491" width="100" height="40" as="geometry" />
        </mxCell>
        <mxCell id="Q8Neo4dbbyz0SUrR5pc5-178" value="" style="shape=flexArrow;endArrow=classic;html=1;rounded=0;fillColor=#000000;entryX=0.5;entryY=1;entryDx=0;entryDy=0;" parent="1" edge="1">
          <mxGeometry width="50" height="50" relative="1" as="geometry">
            <mxPoint x="856.5" y="478" as="sourcePoint" />
            <mxPoint x="855" y="420" as="targetPoint" />
          </mxGeometry>
        </mxCell>
        <mxCell id="Q8Neo4dbbyz0SUrR5pc5-187" value="" style="endArrow=oval;html=1;rounded=0;endFill=1;" parent="1" edge="1">
          <mxGeometry width="50" height="50" relative="1" as="geometry">
            <mxPoint x="570" y="470" as="sourcePoint" />
            <mxPoint x="620" y="470" as="targetPoint" />
          </mxGeometry>
        </mxCell>
        <mxCell id="QCMUjjd5cfOw1SHgW-fw-125" value="ID" style="text;html=1;align=center;verticalAlign=middle;resizable=0;points=[];autosize=1;strokeColor=none;fillColor=none;" parent="1" vertex="1">
          <mxGeometry x="815" y="662" width="40" height="30" as="geometry" />
        </mxCell>
        <mxCell id="QCMUjjd5cfOw1SHgW-fw-130" style="edgeStyle=orthogonalEdgeStyle;rounded=1;orthogonalLoop=1;jettySize=auto;html=1;exitX=0.5;exitY=1;exitDx=0;exitDy=0;entryX=0.5;entryY=0;entryDx=0;entryDy=0;endArrow=none;endFill=0;" parent="1" source="QCMUjjd5cfOw1SHgW-fw-129" target="69" edge="1">
          <mxGeometry relative="1" as="geometry" />
        </mxCell>
        <mxCell id="QCMUjjd5cfOw1SHgW-fw-129" value="Aggiunta autore" style="shape=rhombus;perimeter=rhombusPerimeter;whiteSpace=wrap;html=1;align=center;" parent="1" vertex="1">
          <mxGeometry x="275" y="657" width="120" height="60" as="geometry" />
        </mxCell>
        <mxCell id="QCMUjjd5cfOw1SHgW-fw-131" value="(0,N)" style="text;html=1;align=center;verticalAlign=middle;resizable=0;points=[];autosize=1;strokeColor=none;fillColor=none;" parent="1" vertex="1">
          <mxGeometry x="335" y="478" width="50" height="30" as="geometry" />
        </mxCell>
        <mxCell id="QCMUjjd5cfOw1SHgW-fw-132" value="(1,1)" style="text;html=1;align=center;verticalAlign=middle;resizable=0;points=[];autosize=1;strokeColor=none;fillColor=none;" parent="1" vertex="1">
          <mxGeometry x="335" y="762" width="50" height="30" as="geometry" />
        </mxCell>
        <mxCell id="auU55y5egvNY-qfzERoh-124" value="descrizione audio" style="text;html=1;align=center;verticalAlign=middle;resizable=0;points=[];autosize=1;strokeColor=none;fillColor=none;" vertex="1" parent="1">
          <mxGeometry x="605" y="850" width="120" height="30" as="geometry" />
        </mxCell>
        <mxCell id="auU55y5egvNY-qfzERoh-133" value="Opposta" style="whiteSpace=wrap;html=1;align=center;rounded=0;" vertex="1" parent="1">
          <mxGeometry x="660" y="565" width="100" height="40" as="geometry" />
        </mxCell>
        <mxCell id="auU55y5egvNY-qfzERoh-134" style="edgeStyle=orthogonalEdgeStyle;rounded=0;orthogonalLoop=1;jettySize=auto;html=1;exitX=0.5;exitY=0;exitDx=0;exitDy=0;" edge="1" parent="1" source="auU55y5egvNY-qfzERoh-135">
          <mxGeometry relative="1" as="geometry">
            <mxPoint x="595" y="535" as="targetPoint" />
          </mxGeometry>
        </mxCell>
        <mxCell id="auU55y5egvNY-qfzERoh-135" value="Uguale" style="whiteSpace=wrap;html=1;align=center;rounded=0;" vertex="1" parent="1">
          <mxGeometry x="545" y="565" width="100" height="40" as="geometry" />
        </mxCell>
        <mxCell id="auU55y5egvNY-qfzERoh-136" value="Simile" style="whiteSpace=wrap;html=1;align=center;rounded=0;" vertex="1" parent="1">
          <mxGeometry x="430" y="565" width="100" height="40" as="geometry" />
        </mxCell>
        <mxCell id="auU55y5egvNY-qfzERoh-137" value="" style="shape=flexArrow;endArrow=classic;html=1;rounded=0;fillColor=#000000;" edge="1" parent="1">
          <mxGeometry width="50" height="50" relative="1" as="geometry">
            <mxPoint x="594" y="555" as="sourcePoint" />
            <mxPoint x="594" y="525" as="targetPoint" />
          </mxGeometry>
        </mxCell>
        <mxCell id="auU55y5egvNY-qfzERoh-138" value="" style="endArrow=none;html=1;rounded=0;edgeStyle=orthogonalEdgeStyle;entryX=0.5;entryY=0;entryDx=0;entryDy=0;exitX=0.5;exitY=0;exitDx=0;exitDy=0;" edge="1" parent="1" source="auU55y5egvNY-qfzERoh-136" target="auU55y5egvNY-qfzERoh-133">
          <mxGeometry width="50" height="50" relative="1" as="geometry">
            <mxPoint x="480" y="555" as="sourcePoint" />
            <mxPoint x="710" y="555" as="targetPoint" />
            <Array as="points">
              <mxPoint x="480" y="555" />
              <mxPoint x="710" y="555" />
            </Array>
          </mxGeometry>
        </mxCell>
      </root>
    </mxGraphModel>
  </diagram>
</mxfile>
